<svg width="222" height="46" viewBox="0 0 222 46" fill="none" xmlns="http://www.w3.org/2000/svg">
<path d="M16.4281 15.2333C17.3778 14.7583 20.3259 13.1186 20.3259 9.15667C20.3259 5.19473 17.7309 1.71484 11.344 1.71484H0V30.6412H11.2239C16.4104 30.6412 21.5581 28.0691 21.5581 22.4042C21.5581 16.7392 16.8412 15.3459 16.4281 15.2298V15.2333ZM4.66751 13.379V5.89141H11.3863C14.2285 5.89141 15.4219 7.43608 15.4219 9.59649C15.4219 12.5134 13.134 13.379 10.5919 13.379H4.66751ZM16.6541 22.1297C16.6541 24.8531 14.5357 26.4681 10.9874 26.4681H4.66751V17.552H11.0262C15.097 17.552 16.6541 19.4767 16.6541 22.1297Z" fill="#1E3D6E"/>
<path d="M108.699 18.0693H122.073V13.6569H108.699V6.12716H123.065V1.71484H104.031V30.6447H123.782V26.2324H108.699V18.0693Z" fill="#1E3D6E"/>
<path d="M174.019 22.4957L165.267 1.71484H158.869V30.6447H163.537V9.07574L172.423 30.6447H175.537L184.424 9.07926V30.6447H189.091V1.71484H182.694L174.019 22.4957Z" fill="#1E3D6E"/>
<path d="M52.6307 1C60.9772 1 67.7419 7.10828 67.7419 16.1792C67.7419 25.2501 60.9772 31.3584 52.6307 31.3584C44.2843 31.3584 37.5195 25.2501 37.5195 16.1792C37.5195 7.10828 44.2878 1 52.6307 1ZM52.6307 5.40176C46.9781 5.40176 42.3954 9.74018 42.3954 16.1792C42.3954 22.6182 46.9781 26.9567 52.6307 26.9567C58.2833 26.9567 62.866 22.6182 62.866 16.1792C62.866 9.74018 58.2833 5.40176 52.6307 5.40176Z" fill="#1E3D6E"/>
<path d="M77.5429 26.2324V6.13771H83.2484C88.901 6.13771 93.4838 9.83224 93.4838 16.1798C93.4838 22.5273 88.0536 26.2324 82.4046 26.2324H77.5429ZM83.2519 1.71484H72.8789V30.6412H83.2519C91.7361 30.6412 98.3631 24.364 98.3631 16.1763C98.3631 7.98849 92.9047 1.71484 83.2519 1.71484Z" fill="#1E3D6E"/>
<path d="M148.633 30.6521L154.395 30.6451L145.166 17.9852C149.961 17.0281 151.722 13.7066 151.722 9.99448C151.722 5.5892 149.261 1.71875 142.161 1.71875H130.221V30.6451H134.888V18.2702H137.261C138.027 18.2702 139.736 18.4461 140.851 19.9802L148.637 30.6521H148.633ZM134.885 5.8918H141.261C144.206 5.8918 146.815 6.61663 146.815 9.95226C146.815 13.2879 144.304 14.1007 141.519 14.1007H134.885V5.8918Z" fill="#1E3D6E"/>
<path d="M216.605 30.6447H221.996L209.575 1.71484H205.557L192.766 30.6447H198.157L200.996 23.7025H213.769L216.608 30.6447H216.605ZM202.701 19.526L207.383 8.06942L212.064 19.526H202.701Z" fill="#1E3D6E"/>
<path d="M31.773 1.71484H27.1055V30.6412H31.773V1.71484Z" fill="#1E3D6E"/>
<path d="M0.00390625 38.3609H1.16196V43.7936H3.92645V44.8352H0.00390625V38.3574V38.3609Z" fill="#1E3D6E"/>
<path d="M9.9257 38.3594H10.9249L13.7247 44.8371H12.4042L11.7969 43.3558H8.97949L8.3934 44.8371H7.09766L9.9257 38.3594ZM11.3945 42.3635L10.3953 39.7281L9.37492 42.3635H11.3945Z" fill="#1E3D6E"/>
<path d="M17.2148 38.3609H19.7498C19.9935 38.3609 20.2371 38.3891 20.4736 38.4489C20.7137 38.5052 20.9256 38.6002 21.1127 38.7339C21.2998 38.8641 21.4516 39.033 21.5681 39.2406C21.6846 39.4482 21.7411 39.698 21.7411 39.99C21.7411 40.356 21.6387 40.6586 21.4304 40.8943C21.2221 41.1301 20.9503 41.3025 20.6149 41.408V41.4256C20.8161 41.4503 21.0032 41.5066 21.1798 41.5945C21.3528 41.6825 21.501 41.7951 21.6246 41.9323C21.7482 42.0695 21.8435 42.2279 21.9141 42.4073C21.9847 42.5868 22.0201 42.7803 22.0201 42.9879C22.0201 43.3433 21.9494 43.6353 21.8082 43.8711C21.667 44.1068 21.4834 44.2933 21.2539 44.4375C21.0244 44.5818 20.7596 44.6839 20.463 44.7437C20.1665 44.8035 19.8628 44.8352 19.5592 44.8352H17.2184V38.3574L17.2148 38.3609ZM18.3729 40.9929H19.4286C19.8134 40.9929 20.1029 40.919 20.2971 40.7677C20.4913 40.6199 20.5866 40.4228 20.5866 40.1765C20.5866 39.895 20.4878 39.6874 20.29 39.5502C20.0923 39.413 19.771 39.3461 19.3297 39.3461H18.3764V40.9929H18.3729ZM18.3729 43.8464H19.4392C19.5874 43.8464 19.7428 43.8394 19.9123 43.8183C20.0817 43.7972 20.2335 43.7585 20.3748 43.6916C20.516 43.6248 20.6325 43.5298 20.7243 43.4031C20.8161 43.2764 20.862 43.1075 20.862 42.8964C20.862 42.5551 20.749 42.3158 20.5266 42.1821C20.3042 42.0484 19.9546 41.9816 19.4851 41.9816H18.3729V43.8464Z" fill="#1E3D6E"/>
<path d="M25.5195 41.6264C25.5195 41.1091 25.6043 40.6377 25.7773 40.2119C25.9503 39.7897 26.1868 39.4273 26.4905 39.1282C26.7941 38.8291 27.1542 38.6004 27.5744 38.4385C27.9945 38.2767 28.4535 38.1958 28.9549 38.1958C29.4633 38.1887 29.9293 38.2661 30.3495 38.4209C30.7731 38.5758 31.1368 38.8045 31.4404 39.1035C31.7476 39.4026 31.9841 39.7615 32.1571 40.1838C32.3266 40.606 32.4149 41.074 32.4149 41.5912C32.4149 42.1084 32.3301 42.5588 32.1571 42.974C31.9841 43.3892 31.7476 43.7446 31.4404 44.0437C31.1333 44.3427 30.7696 44.575 30.3495 44.7439C29.9258 44.9127 29.4633 44.9972 28.9549 45.0042C28.4535 45.0042 27.991 44.9233 27.5744 44.7614C27.1542 44.5996 26.7941 44.3709 26.4905 44.0753C26.1868 43.7798 25.9503 43.4244 25.7773 43.0092C25.6078 42.594 25.5195 42.1331 25.5195 41.6264ZM26.7305 41.5525C26.7305 41.9008 26.7835 42.221 26.893 42.5131C26.9989 42.8051 27.1507 43.0584 27.3484 43.2731C27.5461 43.4877 27.7791 43.6531 28.051 43.7762C28.3229 43.8994 28.6265 43.9592 28.9654 43.9592C29.3044 43.9592 29.608 43.8994 29.8834 43.7762C30.1588 43.6531 30.3954 43.4877 30.5895 43.2731C30.7873 43.0584 30.9355 42.8086 31.045 42.5131C31.1509 42.221 31.2074 41.9008 31.2074 41.5525C31.2074 41.2288 31.1544 40.9262 31.045 40.6482C30.9391 40.3667 30.7873 40.1239 30.5895 39.9128C30.3918 39.7017 30.1588 39.5363 29.8834 39.4202C29.608 39.3006 29.3009 39.2408 28.9654 39.2408C28.63 39.2408 28.3229 39.3006 28.051 39.4202C27.7791 39.5399 27.5461 39.7052 27.3484 39.9128C27.1507 40.1239 27.0024 40.3667 26.893 40.6482C26.787 40.9297 26.7305 41.2323 26.7305 41.5525Z" fill="#1E3D6E"/>
<path d="M36.2715 38.3609H38.5311C38.8418 38.3609 39.1454 38.3891 39.4349 38.4489C39.7245 38.5052 39.9857 38.6072 40.2117 38.7445C40.4376 38.8852 40.6177 39.0752 40.7519 39.311C40.886 39.5502 40.9531 39.8493 40.9531 40.2152C40.9531 40.6832 40.8225 41.0773 40.5612 41.394C40.3 41.7106 39.9292 41.9042 39.4455 41.971L41.172 44.8352H39.7774L38.2734 42.0906H37.4295V44.8352H36.2715V38.3574V38.3609ZM38.3263 41.1054C38.4923 41.1054 38.6582 41.0984 38.8206 41.0843C38.9866 41.0703 39.1384 41.0316 39.2761 40.9753C39.4138 40.919 39.5267 40.8275 39.6115 40.7114C39.6962 40.5917 39.7386 40.4264 39.7386 40.2117C39.7386 40.0217 39.6997 39.8704 39.6185 39.7543C39.5373 39.6382 39.4349 39.5502 39.3078 39.4939C39.1807 39.4376 39.036 39.3989 38.8806 39.3778C38.7253 39.3602 38.5735 39.3497 38.4252 39.3497H37.426V41.1054H38.3263Z" fill="#1E3D6E"/>
<path d="M47.1913 38.3594H48.1905L50.9903 44.8371H49.6698L49.0626 43.3558H46.2451L45.659 44.8371H44.3633L47.1913 38.3594ZM48.6601 42.3635L47.6609 39.7281L46.6405 42.3635H48.6601Z" fill="#1E3D6E"/>
<path d="M55.1768 39.4009H53.1855V38.3594H58.3262V39.4009H56.3349V44.8336H55.1768V39.4009Z" fill="#1E3D6E"/>
<path d="M61.3691 41.6264C61.3691 41.1091 61.4539 40.6377 61.6269 40.2119C61.7999 39.7897 62.0364 39.4273 62.3401 39.1282C62.6437 38.8291 63.0038 38.6004 63.424 38.4385C63.8441 38.2767 64.3031 38.1958 64.8045 38.1958C65.3129 38.1887 65.7789 38.2661 66.1991 38.4209C66.6227 38.5758 66.9864 38.8045 67.29 39.1035C67.5972 39.4026 67.8338 39.7615 68.0068 40.1838C68.1762 40.606 68.2645 41.074 68.2645 41.5912C68.2645 42.1084 68.1798 42.5588 68.0068 42.974C67.8338 43.3892 67.5972 43.7446 67.29 44.0437C66.9829 44.3427 66.6192 44.575 66.1991 44.7439C65.7754 44.9127 65.3129 44.9972 64.8045 45.0042C64.3031 45.0042 63.8406 44.9233 63.424 44.7614C63.0038 44.5996 62.6437 44.3709 62.3401 44.0753C62.0364 43.7798 61.7999 43.4244 61.6269 43.0092C61.4574 42.594 61.3691 42.1331 61.3691 41.6264ZM62.5837 41.5525C62.5837 41.9008 62.6366 42.221 62.7461 42.5131C62.852 42.8051 63.0038 43.0584 63.2015 43.2731C63.3993 43.4877 63.6323 43.6531 63.9041 43.7762C64.176 43.8994 64.4796 43.9592 64.8186 43.9592C65.1575 43.9592 65.4612 43.8994 65.7365 43.7762C66.0119 43.6531 66.2485 43.4877 66.4427 43.2731C66.6404 43.0584 66.7887 42.8086 66.8981 42.5131C67.0041 42.221 67.0605 41.9008 67.0605 41.5525C67.0605 41.2288 67.0076 40.9262 66.8981 40.6482C66.7922 40.3667 66.6404 40.1239 66.4427 39.9128C66.245 39.7017 66.0119 39.5363 65.7365 39.4202C65.4612 39.3006 65.154 39.2408 64.8186 39.2408C64.4832 39.2408 64.176 39.3006 63.9041 39.4202C63.6323 39.5399 63.3993 39.7052 63.2015 39.9128C63.0038 40.1239 62.8555 40.3667 62.7461 40.6482C62.6402 40.9297 62.5837 41.2323 62.5837 41.5525Z" fill="#1E3D6E"/>
<path d="M72.1211 38.3594H73.2791V44.8371H72.1211V38.3594Z" fill="#1E3D6E"/>
<path d="M77.4668 38.3609H79.7264C80.0371 38.3609 80.3407 38.3891 80.6303 38.4489C80.9198 38.5052 81.181 38.6072 81.407 38.7445C81.633 38.8852 81.813 39.0752 81.9472 39.311C82.0814 39.5502 82.1484 39.8493 82.1484 40.2152C82.1484 40.6832 82.0178 41.0773 81.7565 41.394C81.4953 41.7106 81.1245 41.9042 80.6408 41.971L82.3673 44.8352H80.9727L79.4687 42.0906H78.6248V44.8352H77.4668V38.3574V38.3609ZM79.5252 41.1054C79.6911 41.1054 79.857 41.0984 80.0195 41.0843C80.1854 41.0703 80.3372 41.0316 80.4749 40.9753C80.6126 40.919 80.7256 40.8275 80.8103 40.7114C80.8951 40.5917 80.9374 40.4264 80.9374 40.2117C80.9374 40.0217 80.8986 39.8704 80.8174 39.7543C80.7362 39.6382 80.6338 39.5502 80.5067 39.4939C80.3796 39.4376 80.2348 39.3989 80.0795 39.3778C79.9241 39.3602 79.7723 39.3497 79.624 39.3497H78.6248V41.1054H79.5252Z" fill="#1E3D6E"/>
<path d="M86.0312 38.3605H90.3351V39.4021H87.1858V40.9925H90.1692V42.034H87.1858V43.7897H90.501V44.8312H86.0312V38.3535V38.3605Z" fill="#1E3D6E"/>
<path d="M99.6465 38.3609H102.206C102.633 38.3609 103.046 38.4278 103.445 38.558C103.844 38.6882 104.194 38.8887 104.501 39.1561C104.808 39.4236 105.052 39.7613 105.235 40.166C105.419 40.5706 105.511 41.0491 105.511 41.598C105.511 42.1469 105.405 42.6325 105.193 43.0372C104.981 43.4418 104.709 43.7796 104.378 44.0435C104.046 44.3074 103.675 44.5079 103.265 44.6381C102.859 44.7683 102.46 44.8352 102.069 44.8352H99.6465V38.3574V38.3609ZM101.666 43.7936C102.026 43.7936 102.369 43.7514 102.69 43.6705C103.011 43.5896 103.29 43.4594 103.53 43.287C103.77 43.1146 103.957 42.8894 104.095 42.6114C104.233 42.3334 104.303 41.9956 104.303 41.6016C104.303 41.2075 104.243 40.8767 104.12 40.5952C103.996 40.3138 103.827 40.0886 103.611 39.9126C103.392 39.7402 103.138 39.61 102.842 39.5291C102.545 39.4482 102.22 39.406 101.864 39.406H100.808V43.7972H101.67L101.666 43.7936Z" fill="#1E3D6E"/>
<path d="M109.348 38.3605H113.652V39.4021H110.502V40.9925H113.486V42.034H110.502V43.7897H113.817V44.8312H109.348V38.3535V38.3605Z" fill="#1E3D6E"/>
<path d="M117.727 38.3609H119.986C120.297 38.3609 120.601 38.3891 120.89 38.4489C121.18 38.5052 121.441 38.6072 121.667 38.7445C121.893 38.8852 122.073 39.0752 122.207 39.311C122.341 39.5502 122.408 39.8493 122.408 40.2152C122.408 40.6832 122.278 41.0773 122.016 41.394C121.755 41.7106 121.384 41.9042 120.901 41.971L122.627 44.8352H121.232L119.728 42.0906H118.885V44.8352H117.727V38.3574V38.3609ZM119.785 41.1054C119.951 41.1054 120.117 41.0984 120.279 41.0843C120.445 41.0703 120.597 41.0316 120.735 40.9753C120.872 40.919 120.985 40.8275 121.07 40.7114C121.155 40.5917 121.197 40.4264 121.197 40.2117C121.197 40.0217 121.158 39.8704 121.077 39.7543C120.996 39.6382 120.894 39.5502 120.766 39.4939C120.639 39.4376 120.495 39.3989 120.339 39.3778C120.184 39.3602 120.032 39.3497 119.884 39.3497H118.885V41.1054H119.785Z" fill="#1E3D6E"/>
<path d="M126.307 38.3594H128.068L129.802 42.8948L131.557 38.3594H133.301V44.8371H132.199V39.4572H132.182L130.208 44.8371H129.399L127.426 39.4572H127.408V44.8371H126.307V38.3594Z" fill="#1E3D6E"/>
<path d="M139.633 38.3594H140.632L143.432 44.8371H142.108L141.504 43.3558H138.687L138.101 44.8371H136.809L139.637 38.3594H139.633ZM141.102 42.3635L140.103 39.7281L139.082 42.3635H141.102Z" fill="#1E3D6E"/>
<path d="M147.62 39.4009H145.629V38.3594H150.77V39.4009H148.778V44.8336H147.62V39.4009Z" fill="#1E3D6E"/>
<path d="M153.812 41.6264C153.812 41.1091 153.897 40.6377 154.07 40.2119C154.243 39.7897 154.48 39.4273 154.783 39.1282C155.087 38.8291 155.447 38.6004 155.867 38.4385C156.284 38.2767 156.746 38.1958 157.248 38.1958C157.756 38.1887 158.219 38.2661 158.642 38.4209C159.066 38.5758 159.43 38.8045 159.737 39.1035C160.041 39.4026 160.281 39.7615 160.454 40.1838C160.623 40.606 160.711 41.074 160.711 41.5912C160.711 42.1084 160.627 42.5588 160.454 42.974C160.284 43.3892 160.044 43.7446 159.737 44.0437C159.43 44.3427 159.066 44.575 158.642 44.7439C158.219 44.9127 157.756 44.9972 157.248 45.0042C156.746 45.0042 156.284 44.9233 155.867 44.7614C155.447 44.5996 155.087 44.3709 154.783 44.0753C154.48 43.7798 154.243 43.4244 154.07 43.0092C153.901 42.594 153.812 42.1331 153.812 41.6264ZM155.024 41.5525C155.024 41.9008 155.076 42.221 155.186 42.5131C155.292 42.8051 155.444 43.0584 155.638 43.2731C155.836 43.4877 156.069 43.6531 156.34 43.7762C156.612 43.8994 156.919 43.9592 157.255 43.9592C157.59 43.9592 157.897 43.8994 158.173 43.7762C158.448 43.6531 158.681 43.4877 158.879 43.2731C159.077 43.0584 159.225 42.8086 159.334 42.5131C159.44 42.221 159.493 41.9008 159.493 41.5525C159.493 41.2288 159.44 40.9262 159.334 40.6482C159.229 40.3667 159.077 40.1239 158.879 39.9128C158.681 39.7017 158.448 39.5363 158.173 39.4202C157.897 39.3006 157.59 39.2408 157.255 39.2408C156.919 39.2408 156.612 39.3006 156.34 39.4202C156.069 39.5399 155.836 39.7052 155.638 39.9128C155.444 40.1239 155.292 40.3667 155.186 40.6482C155.076 40.9297 155.024 41.2323 155.024 41.5525Z" fill="#1E3D6E"/>
<path d="M164.564 38.3609H165.723V43.7936H168.487V44.8352H164.568V38.3574L164.564 38.3609Z" fill="#1E3D6E"/>
<path d="M171.564 41.6264C171.564 41.1091 171.649 40.6377 171.822 40.2119C171.992 39.7897 172.232 39.4273 172.535 39.1282C172.839 38.8291 173.199 38.6004 173.619 38.4385C174.036 38.2767 174.498 38.1958 175 38.1958C175.508 38.1887 175.971 38.2661 176.394 38.4209C176.818 38.5758 177.182 38.8045 177.489 39.1035C177.793 39.4026 178.033 39.7615 178.206 40.1838C178.375 40.606 178.463 41.074 178.463 41.5912C178.463 42.1084 178.379 42.5588 178.206 42.974C178.033 43.3892 177.796 43.7446 177.489 44.0437C177.182 44.3427 176.818 44.575 176.394 44.7439C175.971 44.9127 175.508 44.9972 175 45.0042C174.498 45.0042 174.036 44.9233 173.619 44.7614C173.199 44.5996 172.839 44.3709 172.535 44.0753C172.232 43.7798 171.995 43.4244 171.822 43.0092C171.653 42.594 171.564 42.1331 171.564 41.6264ZM172.775 41.5525C172.775 41.9008 172.828 42.221 172.934 42.5131C173.04 42.8051 173.192 43.0584 173.39 43.2731C173.588 43.4877 173.821 43.6531 174.092 43.7762C174.364 43.8994 174.668 43.9592 175.007 43.9592C175.346 43.9592 175.649 43.8994 175.925 43.7762C176.2 43.6531 176.437 43.4877 176.631 43.2731C176.825 43.0584 176.977 42.8086 177.083 42.5131C177.189 42.221 177.245 41.9008 177.245 41.5525C177.245 41.2288 177.192 40.9262 177.083 40.6482C176.973 40.3702 176.825 40.1239 176.631 39.9128C176.433 39.7017 176.2 39.5363 175.925 39.4202C175.649 39.3006 175.342 39.2408 175.007 39.2408C174.671 39.2408 174.364 39.3006 174.092 39.4202C173.821 39.5399 173.588 39.7052 173.39 39.9128C173.192 40.1239 173.044 40.3667 172.934 40.6482C172.825 40.9297 172.775 41.2323 172.775 41.5525Z" fill="#1E3D6E"/>
<path d="M188.085 44.3595C187.283 44.7853 186.386 44.9999 185.394 44.9999C184.893 44.9999 184.43 44.919 184.014 44.7571C183.594 44.5952 183.234 44.3665 182.93 44.071C182.626 43.7754 182.39 43.42 182.217 43.0048C182.047 42.5896 181.959 42.1287 181.959 41.622C181.959 41.1154 182.044 40.6333 182.217 40.2076C182.386 39.7853 182.626 39.4229 182.93 39.1238C183.234 38.8248 183.594 38.596 184.014 38.4342C184.43 38.2723 184.893 38.1914 185.394 38.1914C185.896 38.1914 186.355 38.2512 186.789 38.3709C187.223 38.4905 187.612 38.7016 187.954 39.0077L187.1 39.8663C186.891 39.6657 186.641 39.5109 186.341 39.3983C186.044 39.2892 185.73 39.2329 185.401 39.2329C185.073 39.2329 184.759 39.2927 184.487 39.4124C184.215 39.532 183.982 39.6974 183.784 39.905C183.587 40.1161 183.438 40.3589 183.329 40.6404C183.219 40.9218 183.17 41.2244 183.17 41.5446C183.17 41.893 183.223 42.2132 183.329 42.5052C183.435 42.7972 183.587 43.0506 183.784 43.2652C183.982 43.4799 184.215 43.6452 184.487 43.7684C184.759 43.8915 185.062 43.9513 185.401 43.9513C185.694 43.9513 185.973 43.9232 186.231 43.8704C186.492 43.8141 186.722 43.7297 186.923 43.6136V42.0865H185.592V41.045H188.078V44.356L188.085 44.3595Z" fill="#1E3D6E"/>
<path d="M192.205 38.3594H193.36V44.8371H192.205V38.3594Z" fill="#1E3D6E"/>
<path d="M204.519 44.8345H200.738C200.23 44.8345 199.76 44.7571 199.329 44.6023C198.899 44.4475 198.524 44.2258 198.21 43.9338C197.892 43.6452 197.649 43.2898 197.465 42.8711C197.282 42.4524 197.193 41.9809 197.193 41.4567C197.193 40.9817 197.282 40.5453 197.465 40.1442C197.645 39.7466 197.892 39.4018 198.203 39.1098C198.514 38.8212 198.877 38.596 199.291 38.4342C199.704 38.2723 200.141 38.1914 200.607 38.1914C201.074 38.1914 201.511 38.2723 201.924 38.4342C202.337 38.596 202.701 38.8212 203.012 39.1098C203.323 39.3983 203.57 39.7431 203.75 40.1442C203.93 40.5453 204.022 40.9817 204.022 41.4567C204.022 41.798 203.979 42.097 203.898 42.3574C203.817 42.6178 203.707 42.8465 203.573 43.0435C203.439 43.2406 203.291 43.4095 203.128 43.5432C202.966 43.6769 202.807 43.7895 202.655 43.881V43.8986H204.519V44.8345ZM200.579 39.2364C200.269 39.2364 199.979 39.2927 199.711 39.4053C199.446 39.5179 199.216 39.6763 199.022 39.8768C198.828 40.0774 198.676 40.3166 198.567 40.5911C198.457 40.8655 198.401 41.1646 198.401 41.4883C198.401 41.812 198.454 42.1252 198.567 42.4067C198.676 42.6917 198.828 42.9345 199.026 43.1385C199.22 43.3426 199.453 43.5045 199.718 43.6171C199.983 43.7332 200.276 43.7895 200.593 43.7895C200.911 43.7895 201.208 43.7332 201.48 43.6171C201.751 43.501 201.984 43.3391 202.182 43.1385C202.38 42.9345 202.532 42.6917 202.641 42.4067C202.751 42.1217 202.807 41.8156 202.807 41.4883C202.807 41.1611 202.751 40.8655 202.641 40.5911C202.532 40.3166 202.38 40.0774 202.182 39.8768C201.984 39.6763 201.751 39.5179 201.48 39.4053C201.208 39.2927 200.904 39.2364 200.576 39.2364H200.579Z" fill="#1E3D6E"/>
<path d="M213.24 42.4566C213.24 42.8471 213.173 43.199 213.039 43.5122C212.905 43.8253 212.721 44.0927 212.488 44.3109C212.255 44.529 211.98 44.6979 211.662 44.8176C211.344 44.9372 210.998 44.997 210.624 44.997C210.25 44.997 209.904 44.9372 209.586 44.8176C209.268 44.6979 208.989 44.529 208.756 44.3109C208.52 44.0927 208.34 43.8253 208.206 43.5122C208.075 43.199 208.008 42.8471 208.008 42.4566V38.3574H209.162V42.4179C209.162 42.5762 209.187 42.7416 209.236 42.9175C209.286 43.0899 209.367 43.2518 209.48 43.396C209.593 43.5403 209.741 43.6635 209.928 43.7585C210.116 43.8535 210.345 43.8992 210.62 43.8992C210.896 43.8992 211.129 43.8535 211.312 43.7585C211.5 43.6635 211.648 43.5438 211.761 43.396C211.874 43.2483 211.955 43.0899 212.004 42.9175C212.054 42.7451 212.079 42.5762 212.079 42.4179V38.3574H213.237V42.4566H213.24Z" fill="#1E3D6E"/>
<path d="M217.418 38.3605H221.722V39.4021H218.572V40.9925H221.556V42.034H218.572V43.7897H221.888V44.8312H217.418V38.3535V38.3605Z" fill="#1E3D6E"/>
</svg>
