<svg xmlns="http://www.w3.org/2000/svg" width="40" height="47" viewBox="0 0 46.797 64.636">
        <g id="Group_9001" data-name="Group 9001" transform="translate(-6.584 -6.094)">
        <g id="Group_9003" data-name="Group 9003" transform="translate(6.584 6.094)">
            <path id="Path_11503" data-name="Path 11503" d="M60.24,147.216a.5.5,0,0,0,.243,0,28.961,28.961,0,0,0,14.25-8.277c.034-.04.262-.261.247-.465a.51.51,0,0,0-.15-.36l-6.206-6.177a.537.537,0,0,0-.373-.165.6.6,0,0,0-.344.135,18.819,18.819,0,0,1-7.19,4.215,1.182,1.182,0,0,1-.713,0A19.186,19.186,0,0,1,46.65,117.831v-12.4a.446.446,0,0,1,.757-.321l30,29.831a.511.511,0,0,0,.359.146.5.5,0,0,0,.41-.219,30.512,30.512,0,0,0,5.261-17.047V95.959a.5.5,0,0,0-.5-.5h-24.3a.5.5,0,0,0-.362.847l8.4,8.394a.5.5,0,0,0,.345.143h6.55a.537.537,0,0,1,.386.114.577.577,0,0,1,.108.408V117.58a.354.354,0,0,1-.238.313.334.334,0,0,1-.351-.077L51.132,95.606a.508.508,0,0,0-.353-.146l-12.99,0a.5.5,0,0,0-.5.5v21.873A30.284,30.284,0,0,0,60.24,147.216" transform="translate(-37.284 -82.595)" fill="currentColor"></path>
            <path id="Path_11504" data-name="Path 11504" d="M215.565,46.712h-3a3.41,3.41,0,0,1-3.431-3.212V40.437a3.41,3.41,0,0,1,3.431-3.212h3A3.411,3.411,0,0,1,219,40.437V43.5a3.411,3.411,0,0,1-3.432,3.212m-2.025-8.075a2.431,2.431,0,0,0-2.488,2.37v1.577a2.509,2.509,0,0,0,2.56,2.439h.994a2.431,2.431,0,0,0,2.488-2.37V41.007a2.431,2.431,0,0,0-2.488-2.37Z" transform="translate(-172.873 -36.65)" fill="currentColor"></path>
            <path id="Path_11505" data-name="Path 11505" d="M151.963,42.753a4.875,4.875,0,0,0,1.723-1.039l.425-.334a4.536,4.536,0,0,1,1.234-.813c.259-.081.484-.058.489.194,0,.028-.035,2.087-.035,2.087-.032,1.391-.09,2.994-.191,3.537a.3.3,0,0,0,.275.352h1.872a.254.254,0,0,0,.243-.263l0-.719c0-.166-.086-.239-.239-.394-.119-.121-.275-.21-.275-.458V39.076c0-.248.155-.337.275-.458.153-.155.239-.228.239-.394v-.719a.254.254,0,0,0-.243-.264h-1.9a.26.26,0,0,0-.224.132,13.7,13.7,0,0,1-1.663,2.069,6.681,6.681,0,0,1-2,1.585h0a6.681,6.681,0,0,1-2-1.585,13.688,13.688,0,0,1-1.663-2.069.26.26,0,0,0-.224-.132h-1.9a.254.254,0,0,0-.243.264v.719c0,.166.086.239.239.394.12.121.275.21.275.458V44.9c0,.248-.156.337-.275.458-.153.155-.239.228-.239.394l0,.719a.254.254,0,0,0,.243.263h1.872a.3.3,0,0,0,.275-.352c-.1-.543-.158-2.146-.191-3.537,0,0-.035-2.058-.035-2.087,0-.252.23-.275.489-.194a4.536,4.536,0,0,1,1.234.813l.425.334a4.873,4.873,0,0,0,1.723,1.039Z" transform="translate(-122.999 -36.663)" fill="currentColor"></path>
            <path id="Path_11506" data-name="Path 11506" d="M104.461,45.016a.686.686,0,0,0,.541-.274c.156-.154.253-.308.4-.308h.307a.264.264,0,0,1,.264.264v1.738a.3.3,0,0,1-.3.3h-5.59a3.012,3.012,0,0,1-3.012-3.012V37.541a.3.3,0,0,1,.3-.3l8.3,0a.3.3,0,0,1,.3.3v1.727a.263.263,0,0,1-.264.264l-.759,0c-.146,0-.242-.153-.4-.308a.686.686,0,0,0-.541-.274H99.09a.3.3,0,0,0-.3.3V40.69a.317.317,0,0,0,.285.3,42.458,42.458,0,0,0,4.449.2.283.283,0,0,1,.3.3v.947a.281.281,0,0,1-.3.3,30.748,30.748,0,0,0-4.477.207.274.274,0,0,0-.257.3v.5a1.336,1.336,0,0,0,1.281,1.281h4.392" transform="translate(-84.452 -36.661)" fill="currentColor"></path>
            <path id="Path_11507" data-name="Path 11507" d="M39.51,40.417a.289.289,0,0,1,.495-.2l6.454,6.433a.289.289,0,0,0,.206.086h1.2a.289.289,0,0,0,.289-.289s0-8.713,0-8.9a.36.36,0,0,0-.381-.314H46.184a.263.263,0,0,0-.264.264v.6c0,.166.086.239.239.394a.645.645,0,0,1,.279.545v4.088c0,.259-.234.284-.5.2,0,0-1.482-.417-6.344-6a.238.238,0,0,0-.2-.088H37.539a.263.263,0,0,0-.264.263v.72c0,.166.086.239.239.394.119.121.275.21.275.458l0,7.382c0,.244.315.281.315.281l1.684,0a.254.254,0,0,0,.243-.264l0-.719c0-.166-.086-.239-.239-.394-.119-.121-.275-.21-.275-.458Z" transform="translate(-37.275 -36.657)" fill="currentColor"></path>
            <path id="Path_11508" data-name="Path 11508" d="M255.324,36.518a.022.022,0,0,1-.018.034h-.1a.023.023,0,0,1-.019-.01l-.1-.153a.018.018,0,0,0-.016-.008h-.126a.028.028,0,0,0-.028.028v.121a.023.023,0,0,1-.018.022H254.8a.023.023,0,0,1-.018-.022v-.658a.023.023,0,0,1,.023-.023h.265a.274.274,0,0,1,.272.26.266.266,0,0,1-.119.227.022.022,0,0,0-.006.031Zm-.242-.528h-.144a.024.024,0,0,0-.023.024v.2a.026.026,0,0,0,.026.026h.137a.132.132,0,0,0,.129-.114.126.126,0,0,0-.125-.137" transform="translate(-208.893 -35.565)" fill="currentColor"></path>
            <path id="Path_11509" data-name="Path 11509" d="M253.553,35.8a.65.65,0,1,1,.65-.65.651.651,0,0,1-.65.65m0-1.214a.564.564,0,1,0,.564.564.565.565,0,0,0-.564-.564" transform="translate(-207.406 -34.501)" fill="currentColor"></path>
        </g>
        </g>
    </svg>